<svg width="32" height="32" viewBox="0 0 32 32" fill="none" xmlns="http://www.w3.org/2000/svg">
<g clip-path="url(#clip0_36_1289)">
<path d="M23.9999 9.6H20.7999C20.7999 8.72 20.0799 8 19.1999 8H12.7999C11.9199 8 11.1999 8.72 11.1999 9.6H7.9999C7.1199 9.6 6.3999 10.32 6.3999 11.2V12.8C6.3999 15.456 8.5439 17.6 11.1999 17.6H11.4879C12.0639 19.216 13.4719 20.432 15.1999 20.72V24H11.9999C11.5519 24 11.1999 24.352 11.1999 24.8C11.1999 25.248 11.5519 25.6 11.9999 25.6H15.1999H16.7999H19.9999C20.4479 25.6 20.7999 25.248 20.7999 24.8C20.7999 24.352 20.4479 24 19.9999 24H16.7999V20.72C18.5279 20.432 19.9359 19.216 20.5119 17.6H20.7999C23.4559 17.6 25.5999 15.456 25.5999 12.8V11.2C25.5999 10.32 24.8799 9.6 23.9999 9.6ZM11.1999 16C9.4399 16 7.9999 14.56 7.9999 12.8V11.2H11.1999V16ZM23.9999 12.8C23.9999 14.56 22.5599 16 20.7999 16V11.2H23.9999V12.8Z" fill="#FF8A00"/>
</g>
<defs>
<clipPath id="clip0_36_1289">
<rect width="32" height="32" fill="white"/>
</clipPath>
</defs>
</svg>
